<?xml version="1.0" encoding="UTF-8"?>
<svg id="Calque_1" xmlns="http://www.w3.org/2000/svg" xmlns:xlink="http://www.w3.org/1999/xlink" version="1.1" viewBox="0 0 64 64">
  <!-- Generator: Adobe Illustrator 30.0.0, SVG Export Plug-In . SVG Version: 2.1.1 Build 123)  -->
  <defs>
    <style>
      .st0 {
        fill: url(#Dégradé_sans_nom_4);
      }

      .st1 {
        fill: none;
        stroke: #3090c6;
        stroke-miterlimit: 10;
        stroke-width: .52px;
      }

      .st2 {
        fill: #ebebeb;
      }

      .st3 {
        fill: #fff;
      }

      .st4 {
        fill: url(#Dégradé_sans_nom);
      }

      .st5 {
        fill: #134489;
        fill-rule: evenodd;
      }

      .st6 {
        fill: #7bc0ef;
      }
    </style>
    <linearGradient id="Dégradé_sans_nom" data-name="Dégradé sans nom" x1="31.99" y1="63.2" x2="31.99" y2="-.24" gradientTransform="translate(0 64) scale(1 -1)" gradientUnits="userSpaceOnUse">
      <stop offset="0" stop-color="#5da8e7"/>
      <stop offset="1" stop-color="#5da8e7"/>
    </linearGradient>
    <linearGradient id="Dégradé_sans_nom_4" data-name="Dégradé sans nom 4" x1="46.68" y1="30.05" x2="46.68" y2="63.74" gradientUnits="userSpaceOnUse">
      <stop offset="0" stop-color="#f2f4f4"/>
      <stop offset="1" stop-color="#e8e8e8"/>
    </linearGradient>
  </defs>
  <g>
    <rect class="st1" x=".27" y=".28" width="63.44" height="63.44" rx="3.98" ry="3.98"/>
    <rect class="st4" x=".27" y=".31" width="63.44" height="63.44" rx="3.98" ry="3.98"/>
    <path class="st6" d="M63.67,3.63s-1.32-2.58-3.47-2.56c-1.35,0-56.04-.04-56.04-.04,0,0-3.04.32-3.87,2.66C.86,1.35,2.79.33,4.27.31s55.73.03,55.73.03c0,0,3.18.17,3.66,3.28h0Z"/>
  </g>
  <g>
    <path class="st3" d="M49.62,21.24l-11.02-9.42v-.03h-22.06c-1.21,0-2.19.94-2.19,2.1v36.25c0,1.16.98,2.1,2.19,2.1h30.87c1.21,0,2.19-.94,2.19-2.1v-28.91h.02ZM46.66,49.31h-29.37V14.74h21.31v6.5h8.06v28.07Z"/>
    <rect class="st3" x="20.1" y="27.9" width="19.25" height="3.2"/>
    <rect class="st3" x="20.1" y="39.14" width="19.25" height="3.2"/>
    <rect class="st3" x="20.1" y="33.52" width="12.28" height="3.2"/>
  </g>
  <g>
    <path class="st2" d="M59.82,63.97h-30.13v-.52h30.09s1.78.05,2.91-1.42c.81-1.01.76-2.2.76-2.21v-29.74h.52v29.74s.06,1.37-.87,2.53c-1.19,1.55-2.94,1.62-3.28,1.62Z"/>
    <path class="st0" d="M59.73,63.73h-30.05s-.69-12.53,10.36-24.09c10.68-10.76,21.84-9.55,23.65-9.55-.04,18.79-.07,29.69-.07,29.69,0,0,0,1.27-.83,2.39-1.13,1.51-3.05,1.57-3.05,1.57h-.01Z"/>
    <path id="path-8" class="st5" d="M46.93,53.18h1.56c.69,0,1.02-.25,1.17-.25.13,0,.23.1.23.31,0,.23-.25,1.27-.43,1.6-.13.23-.25.33-.69.33h-1.83c0,.52.02.88.03,1.06.02.64.14,1.65.34,1.93.33.48,1.34,1.02,3.35,1.02,2.59,0,4.32-.51,5.85-1.83,1.63-1.4,2.14-3.71,2.14-6.33,0-3.23-1.35-5.32-2.44-6.36-2.34-2.24-5.24-2.54-7.22-2.54-.51,0-1.53.08-1.73.18-.23.1-.32.23-.32.51v10.39h0v-.02h0ZM43.84,45.32c-.58.74-5.78,6.71-6.64,7.86h5.83v1.98h-7.9c-.31,0-.64-.1-.64-.38,0-.31.23-.53.33-.66.18-.2,10.51-12.6,10.73-12.85.41-.47.58-.58.86-.57.43.02.37.34,1.05.26.06,0,.92-.06,1.92-.06,3.18,0,7.43,0,10.2,2.9,1.27,1.32,2.47,3.43,2.47,6.46,0,3.2-1.35,5.65-2.77,7.1-1.17,1.2-3.82,2.87-8.53,2.87h-9.24c-.28,0-.36-.11-.36-.29s.08-.33.2-.33c.23,0,.79-.02,1.2-.08.97-.1,1.15-.5,1.2-1.29.08-1.38.08-3.07.08-3.07v-9.85h0Z"/>
  </g>
</svg>